<svg xmlns="http://www.w3.org/2000/svg" viewBox="0 0 408.18 65.21"><defs><style>.cls-1,.cls-2{fill:#231f20;}.cls-2{font-size:43px;font-family:GoodlightRegular, Goodlight;}</style></defs><title>Zasób 4</title><g id="Warstwa_2" data-name="Warstwa 2"><g id="Warstwa_1-2" data-name="Warstwa 1"><path class="cls-1" d="M351.13,54.42c0,3.58-1.73,7.22-1.73,10.79H22.45V.86h8.16V54.49Z"/><path class="cls-1" d="M78.74,49.65H70.3L68.11,41.5H52.85l-2.19,8.15H42.22L55.33.72h10.3ZM65.92,33.34Q63.21,23.19,60.48,13,57.75,23.19,55,33.34Z"/><path class="cls-1" d="M105.37.87V9H93.14V49.8H85V9H72.75V.87Z"/><path class="cls-1" d="M160.54.87,151,49.8H140.33l-5.26-22.43L129.82,49.8H119.14L109.6.87h8.84c2.3,11.82,4.46,24.25,6.76,36,1.88-7,3.77-15.39,5.65-22.42h8.45L145,36.87c2.29-11.75,4.46-24.18,6.76-36Z"/><path class="cls-1" d="M200.07.87,195.73,9l-8.67,16.32-.54,1V49.8h-8.15V26.35l-.54-1-4.06-7.63-9-16.84h9.23l8.39,15.78L190.83.87Z"/><path class="cls-1" d="M234.4,36.92c0,7.58-6.73,13.72-15,13.72s-15-6.14-15-13.72h4.08c0,5.33,4.9,9.64,11,9.64s10.95-4.31,10.95-9.64-4.9-9.63-10.95-9.63a14.32,14.32,0,0,1-7.63-2.18,13.56,13.56,0,0,1-6.43-11.47,14.07,14.07,0,0,1,28.12,0h-4.07a10,10,0,0,0-20,0,9.78,9.78,0,0,0,10,9.57A16.11,16.11,0,0,1,227,25.1,13.54,13.54,0,0,1,234.4,36.92Z"/><path class="cls-1" d="M267.2,4.93H255V49.78h-4.08V4.93H238.66V.85H267.2Z"/><path class="cls-1" d="M286.6,37.55H269.55l-3.28,12.23h-4.22L275.16.85H281L294.1,49.78h-4.22Zm-1.1-4.08L278.07,5.73l-7.43,27.74Z"/><path class="cls-1" d="M321.59,49.78,311.26,27.36h-8.8V49.78h-4.08V.85h13.26a13.26,13.26,0,0,1,3.85,25.94l10.59,23Zm-9.95-26.5a9.18,9.18,0,0,0,0-18.35h-9.18V23.28Z"/><path class="cls-1" d="M356.77,4.93H344.54V49.78h-4.08V4.93H328.23V.85h28.54Z"/><path class="cls-1" d="M349.61,61.53c6.78-6.4,12.63-13.89,18.24-21.32l-4.57-.6,7.46,19.69c.6,1.58,2.86,2.68,4.17,1.1,10.43-12.49,21.36-25.86,28.34-40.63.85-1.8-.58-4.43-2.82-3.67L383,22l1.33,4.82q10.2-3.7,20.33-7.61l-3.16-2.41a128.6,128.6,0,0,0,1.84,23.67c.54,3.16,5.36,1.82,4.82-1.33a121.16,121.16,0,0,1-1.66-22.34,2.52,2.52,0,0,0-3.17-2.41Q393.18,18.33,383,22c-3,1.08-1.74,5.87,1.33,4.82l17.45-5.94-2.82-3.67c-6.8,14.4-17.39,27.44-27.55,39.62l4.18,1.1L368.1,38.28a2.54,2.54,0,0,0-4.57-.6c-5.35,7.09-11,14.2-17.46,20.31-2.34,2.21,1.2,5.74,3.54,3.54Z"/><path class="cls-1" d="M357.56,52.84c-3,3.4-5.16,9-8.16,12.37-1.18-1.35-1.59-3-2.77-4.35C350.81,58.81,353.38,54.89,357.56,52.84Z"/><text class="cls-2" transform="translate(11.49 35.38) rotate(45)">i</text></g></g></svg>